PathFileType	4	(X/Y/Z)	/Users/niels/Desktop/University/Third Semester/Perception and Action/Exam/Gymnastics Motion Tracking/Code for Gym Tracking/Analyzed Data/Start Salto/stsalto_bad_id9_1_Sports2D/stsalto_bad_id9_1_Sports2D_px_person00.trc
DataRate	CameraRate	NumFrames	NumMarkers	Units	OrigDataRate	OrigDataStartFrame	OrigNumFrames
29.83050847457627	29.83050847457627	10	22	m	29.83050847457627	132	177
Frame#	Time	Hip			RHip			RKnee			RAnkle			RBigToe			RSmallToe			RHeel			LHip			LKnee			LAnkle			LBigToe			LSmallToe			LHeel			Neck			Head			Nose			RShoulder			RElbow			RWrist			LShoulder			LElbow			LWrist		
		X1	Y1	Z1	X2	Y2	Z2	X3	Y3	Z3	X4	Y4	Z4	X5	Y5	Z5	X6	Y6	Z6	X7	Y7	Z7	X8	Y8	Z8	X9	Y9	Z9	X10	Y10	Z10	X11	Y11	Z11	X12	Y12	Z12	X13	Y13	Z13	X14	Y14	Z14	X15	Y15	Z15	X16	Y16	Z16	X17	Y17	Z17	X18	Y18	Z18	X19	Y19	Z19	X20	Y20	Z20	X21	Y21	Z21	X22	Y22	Z22
132	4.425	1.004994303798232	-0.42646533705069123	0.0	1.008892124019624	-0.4246244787431405	0.0	0.853099583459455	-0.3743744730163506	0.0	0.8223473162079403	-0.2319670187427951	0.0	0.7468647583732221	-0.21947428338744285	0.0	0.7692419435385202	-0.21722614165690723	0.0	0.8233501564678032	-0.21159210227075234	0.0	1.0035186514336067	-0.42882579469243576	0.0	0.8511459630112196	-0.37181394609816315	0.0	0.8104142730935465	-0.2379194623185674	0.0	0.7315423210274418	-0.21879329709969594	0.0	0.7409428988899406	-0.220875169615635	0.0	0.8110919551674579	-0.2120076842457909	0.0	0.8927692554622009	-0.5647311378626156	0.0	0.8076329847784072	-0.583821687012649	0.0	0.8341622730115499	-0.5491005837170931	0.0	0.9114290354858988	-0.5611969708461207	0.0	0.8648939662443489	-0.5292474028477637	0.0	0.8367172328362471	-0.5472129639785921	0.0	0.9038362078056372	-0.5663221925422859	0.0	0.8621410288962874	-0.5232757681783505	0.0	0.8372664434177735	-0.5398359710951884	0.0
133	4.458522727272728	1.0070874220171215	-0.43047264597268126	0.0	1.013121102244724	-0.42969746413327514	0.0	0.8588029965893823	-0.3713903363212733	0.0	0.8330237328490733	-0.2305525925275276	0.0	0.757870999284966	-0.21466766859297706	0.0	0.7828016451251221	-0.21567836466308102	0.0	0.8328622113446558	-0.20922230632688163	0.0	1.0074245254549474	-0.43366366659589106	0.0	0.8560750206371072	-0.36775916235437084	0.0	0.8207260932590228	-0.2334082394219663	0.0	0.7379108711283315	-0.21162935043118622	0.0	0.7485735692178727	-0.21346697963620334	0.0	0.8195944734459256	-0.20904057555288585	0.0	0.8926600911690807	-0.5633433068328655	0.0	0.8123605385492564	-0.5783193081155222	0.0	0.840069962046401	-0.5449685140446657	0.0	0.9150952206072415	-0.5625264836104422	0.0	0.86617871477699	-0.5341896490140036	0.0	0.8448625563573338	-0.5439929367168365	0.0	0.901911077562772	-0.5658075386359502	0.0	0.8618120470808722	-0.5279039697651224	0.0	0.8417276306474392	-0.5369991539562587	0.0
134	4.492045454545455	1.0082217797461073	-0.4332676566748653	0.0	1.0159120360683473	-0.4331511074241082	0.0	0.8627716316631208	-0.36917612499906005	0.0	0.8399411854594911	-0.22957505792416738	0.0	0.765797540444354	-0.2117127575836154	0.0	0.7928577129485038	-0.2150117907644281	0.0	0.8387490389170776	-0.20757459699798456	0.0	1.0098193498338317	-0.4371467618968432	0.0	0.8592729528809436	-0.3648765220041594	0.0	0.8272307446945087	-0.23038182842599325	0.0	0.7415923946033703	-0.20673090251500692	0.0	0.7529433336216548	-0.20857499234222565	0.0	0.8244609047419237	-0.2071857701367785	0.0	0.8923886713191506	-0.5625044017112163	0.0	0.8163282621121248	-0.5742586845822284	0.0	0.8443525642308382	-0.5425266475571082	0.0	0.9181215087888931	-0.5636232550365295	0.0	0.8669745463637475	-0.5377606870955794	0.0	0.8506137395950512	-0.5421429980054228	0.0	0.9002128193391533	-0.5652672964780531	0.0	0.8613105999329571	-0.5312320312738738	0.0	0.8449945182961899	-0.5348106896952469	0.0
135	4.525568181818182	1.008665380446723	-0.43484518967841873	0.0	1.0173794321468834	-0.4350319724593397	0.0	0.8649915208110899	-0.3678669541534087	0.0	0.8435011084441442	-0.229011953741108	0.0	0.7704599242838711	-0.21032311169784115	0.0	0.7989463557972442	-0.21488410110014453	0.0	0.8416014466489803	-0.20663365332541211	0.0	1.0109559529467402	-0.43916914865395207	0.0	0.8609112362587479	-0.3632440704257469	0.0	0.8304273804896724	-0.22875526109309657	0.0	0.7431848949376055	-0.20407195745215784	0.0	0.7547759074904713	-0.20602487777322714	0.0	0.8265211661436647	-0.2062642505581185	0.0	0.8921118114454744	-0.5621241072649339	0.0	0.8190044183172179	-0.5717918576499297	0.0	0.846842009448234	-0.5414414267244197	0.0	0.9201112780530004	-0.5643438586087127	0.0	0.8673543999889585	-0.5398398216751713	0.0	0.853831233850429	-0.5414056426470294	0.0	0.8990470517425377	-0.5648685411637704	0.0	0.8608719734259508	-0.5331612201737301	0.0	0.8468914621808348	-0.5334970504055296	0.0
136	4.5590909090909095	1.0087041427151018	-0.43549449425903597	0.0	1.0179045353115812	-0.43575609505280827	0.0	0.8658905519243187	-0.36728462737466777	0.0	0.844714495513811	-0.22877186448543388	0.0	0.7725168492498258	-0.20995456553186287	0.0	0.8017543949922277	-0.21501331707410565	0.0	0.8424316012422266	-0.20623835009784022	0.0	1.0112664808131575	-0.44004286997936803	0.0	0.8614636506763543	-0.3625681686435848	0.0	0.8313959423696383	-0.2281454336411609	0.0	0.743485352996	-0.2030549222159864	0.0	0.7550666579628076	-0.20512956671443913	0.0	0.8268671341399769	-0.20597663828692794	0.0	0.8919074085557329	-0.5620357395024768	0.0	0.8204253300538344	-0.5706485544469827	0.0	0.8479195317681126	-0.541209046860108	0.0	0.9211362889287429	-0.5647147454443435	0.0	0.8674600447255648	-0.5407421017348645	0.0	0.8551346694198863	-0.5413265175053941	0.0	0.8984156458178032	-0.5646357844404	0.0	0.8605776300645657	-0.5339924163626074	0.0	0.8477110556131913	-0.5328989878543344	0.0
137	4.5926136363636365	1.0085653281539622	-0.435585428589975	0.0	1.0178989745443932	-0.4358073289662447	0.0	0.866001753170038	-0.3671594670377259	0.0	0.84463183137931	-0.22872989745399064	0.0	0.772943234881209	-0.21010697249229926	0.0	0.8024505275442647	-0.21521371891043653	0.0	0.8422029732862496	-0.20617494926789087	0.0	1.011152216528558	-0.4402066719336687	0.0	0.8614187635885083	-0.3624695047053249	0.0	0.8311834133491678	-0.22811986234811565	0.0	0.743171384015635	-0.20299008754184042	0.0	0.7546424906621154	-0.20515893499994703	0.0	0.8264120896151301	-0.20602830782341366	0.0	0.8917880682363978	-0.5620917230281076	0.0	0.8209446829063998	-0.5703600912774024	0.0	0.8481234718066716	-0.5413914221000378	0.0	0.9214864764425417	-0.5648411955599272	0.0	0.8674239904161721	-0.5409151201738117	0.0	0.8552962840916075	-0.5415404604815538	0.0	0.898175191883535	-0.5645343548747378	0.0	0.8604222670645099	-0.5341460851393894	0.0	0.8478647734593042	-0.5327576864171363	0.0
138	4.6261363636363635	1.0083906646907783	-0.43542133078871986	0.0	1.0176758552703653	-0.4355669693665699	0.0	0.8657577325454743	-0.36725679663778843	0.0	0.8440364597638484	-0.2287810391837295	0.0	0.772581483431333	-0.2104333071228175	0.0	0.8020870304112204	-0.21538943374148523	0.0	0.8415989668474735	-0.20626566515948816	0.0	1.0108934282796138	-0.4400332208142898	0.0	0.8611394209678853	-0.3626357470834226	0.0	0.8305406729306409	-0.22834237260546217	0.0	0.7426884940260092	-0.2033358165442148	0.0	0.7540376534479817	-0.20556208821353644	0.0	0.8257491664536748	-0.20620609190137168	0.0	0.8917360424177717	-0.5621921894599297	0.0	0.8209517384551915	-0.5705023408881563	0.0	0.8479117683588016	-0.5416958002227769	0.0	0.9214636078154741	-0.564832622898122	0.0	0.8673391707274021	-0.5407404142255366	0.0	0.8549429462242221	-0.5418176561168763	0.0	0.8981610030996854	-0.5645145052061797	0.0	0.8603661955945988	-0.5339786064400005	0.0	0.8477021404816378	-0.5328430628063328	0.0
139	4.659659090909091	1.0082483306305305	-0.4351962323642421	0.0	1.0174231297839926	-0.4352710935892001	0.0	0.8654329176774371	-0.3674197088600878	0.0	0.8433900855024374	-0.2288568172413343	0.0	0.771991995907319	-0.21074338740597426	0.0	0.801384195645454	-0.21550754616908216	0.0	0.8410029772501406	-0.2063955236187781	0.0	1.010644806836072	-0.4397673518581895	0.0	0.8608386672605814	-0.36286648751167233	0.0	0.8298937654833625	-0.22860725336185883	0.0	0.7422661670798426	-0.20375774191019075	0.0	0.7535214332446022	-0.20601076120101444	0.0	0.8251793013125109	-0.2063879663689055	0.0	0.8917258417959922	-0.5622839105438145	0.0	0.8207454131223805	-0.5707840074771365	0.0	0.8475856086717327	-0.541968413691971	0.0	0.9212929114552866	-0.5647706257030314	0.0	0.867257106753442	-0.540469306444883	0.0	0.854472373136229	-0.5420461693209788	0.0	0.8982440453647249	-0.5645336877088355	0.0	0.8603662410924497	-0.533723746835375	0.0	0.8474527991865639	-0.5329989758136503	0.0
140	4.693181818181818	1.0081577469315515	-0.43500668908851375	0.0	1.0172263734734586	-0.4350321341713561	0.0	0.8651623927201239	-0.3675657365393536	0.0	0.8428970626786246	-0.22892231869593135	0.0	0.7714675547375031	-0.21096309166685245	0.0	0.8007309214091	-0.21557001100786702	0.0	0.8405711075838597	-0.2065065016408123	0.0	1.0104674655763233	-0.4395350697244073	0.0	0.8606102247172761	-0.3630615942029594	0.0	0.8294196871561043	-0.22881815431209282	0.0	0.7419827933740991	-0.20409727689233992	0.0	0.7531810813857046	-0.20635716338687082	0.0	0.8248016123075471	-0.20652245578770936	0.0	0.8917356590252555	-0.5623472732507556	0.0	0.8205066747479807	-0.5710472260299101	0.0	0.8473002060303018	-0.5421543577964976	0.0	0.9211072490495376	-0.5647033029263239	0.0	0.8671983229343191	-0.5402315544321539	0.0	0.8540803757079577	-0.5421929286565945	0.0	0.8983448182072	-0.5645638069102634	0.0	0.8603894394879932	-0.533501582751158	0.0	0.8472349421009001	-0.5331419378312066	0.0
141	4.726704545454545	1.0081129672573041	-0.43488296580932206	0.0	1.0171058103314206	-0.43488114620959833	0.0	0.8649872720650755	-0.36766539290387096	0.0	0.8426003715317781	-0.2289659042781439	0.0	0.7711114700976449	-0.21108620771693593	0.0	0.8002743730086415	-0.2155926501018254	0.0	0.8403235144338899	-0.20657974157668663	0.0	1.0103673993033495	-0.4393793269043683	0.0	0.8604732709553359	-0.3631893473294887	0.0	0.8291448692994282	-0.2289498667866319	0.0	0.7418332399917985	-0.20431118729151448	0.0	0.7530051623719062	-0.20656788140508836	0.0	0.8246051623798216	-0.20660109650034927	0.0	0.8917510907598647	-0.5623818329793707	0.0	0.8203189728679458	-0.5712318072855758	0.0	0.8471086356158294	-0.5422543530067878	0.0	0.9209655042699864	-0.5646519468463812	0.0	0.8671650103147935	-0.540071722242275	0.0	0.8538265836131423	-0.5422663410999294	0.0	0.8984257196216168	-0.5645903140024958	0.0	0.8604159360202039	-0.5333528599866127	0.0	0.8470888641847241	-0.5332409794912926	0.0
